# xmcd
#
# Track frame offsets:
#  150
#  12805
#  26337
#  42015
#  57930
#  73770
#  87500
#  103145
#  118185
#  132830
#  148470
#  163815
#  176542
#  188927
#  201892
#  219022
#
# Disc length: 3090 seconds
#
# Revision: 0
# Processed by: cddbd v1.5.2PL0 Copyright (c) Steve Scherf et al.
# Submitted via: AltoMP3_Maker 3.0
#
DISCID=e80c1010
DTITLE=B.B. King - A Heart Full of Blues
DYEAR=1900
DGENRE=
TTITLE0=You're Gonna Miss Me
TTITLE1=Got 'Em Bad
TTITLE2=Troubles Don't Last
TTITLE3=Your Letter
TTITLE4=I Can't Explain
TTITLE5=The Wrong Road
TTITLE6=I Need You Baby
TTITLE7=So Many Days
TTITLE8=Down Hearted
TTITLE9=Strange Things
TTITLE10=Tell Me Baby
TTITLE11=When My Heart Beats Like a Hammer
TTITLE12=Whole Lot of Lovin'
TTITLE13=Going Down Slow
TTITLE14=3 O'Clock Blues
TTITLE15=I Wonder Why
EXTD=
EXTT0=
EXTT1=
EXTT2=
EXTT3=
EXTT4=
EXTT5=
EXTT6=
EXTT7=
EXTT8=
EXTT9=
EXTT10=
EXTT11=
EXTT12=
EXTT13=
EXTT14=
EXTT15=
PLAYORDER=
